HIERARCHY
ROOT Hips
{
  OFFSET 2.92235 44.6225 -2.31472
  CHANNELS 6 Xposition Yposition Zposition Zrotation Xrotation Yrotation
  JOINT Spine
  {
    OFFSET 12.2926 0 0
    CHANNELS 6 Xposition Yposition Zposition Zrotation Xrotation Yrotation
    JOINT Spine1
    {
      OFFSET 19.4953 -0.0133236 0
      CHANNELS 6 Xposition Yposition Zposition Zrotation Xrotation Yrotation
      JOINT Spine2
      {
        OFFSET 20.5878 -0.000900907 0
        CHANNELS 6 Xposition Yposition Zposition Zrotation Xrotation Yrotation
        JOINT LeftShoulder
        {
          OFFSET 25.3216 -12.3262 14.3928
          CHANNELS 6 Xposition Yposition Zposition Zrotation Xrotation Yrotation
          JOINT LeftArm
          {
            OFFSET 29.1658 0 -0.011722
            CHANNELS 6 Xposition Yposition Zposition Zrotation Xrotation Yrotation
            JOINT LeftForeArm
            {
              OFFSET 34.2729 0.000109985 -4.95054e-05
              CHANNELS 6 Xposition Yposition Zposition Zrotation Xrotation Yrotation
              JOINT LeftHand
              {
                OFFSET 27.0039 0.0005008 0.00137724
                CHANNELS 6 Xposition Yposition Zposition Zrotation Xrotation Yrotation
                End Site
                {
                  OFFSET 0 0 0
                }
              }
            }
          }
        }
        JOINT Neck
        {
          OFFSET 33.3144 -4.47583 4.86194e-05
          CHANNELS 6 Xposition Yposition Zposition Zrotation Xrotation Yrotation
          JOINT Head
          {
            OFFSET 25.2277 2.04935e-05 6.99777e-05
            CHANNELS 6 Xposition Yposition Zposition Zrotation Xrotation Yrotation
            End Site
            {
              OFFSET 0 0 0
            }
          }
        }
        JOINT RightShoulder
        {
          OFFSET 25.3216 -12.3265 -14.3925
          CHANNELS 6 Xposition Yposition Zposition Zrotation Xrotation Yrotation
          JOINT RightArm
          {
            OFFSET 29.171 0.000287482 0.00121514
            CHANNELS 6 Xposition Yposition Zposition Zrotation Xrotation Yrotation
            JOINT RightForeArm
            {
              OFFSET 34.2723 0.00423302 -0.00319291
              CHANNELS 6 Xposition Yposition Zposition Zrotation Xrotation Yrotation
              JOINT RightHand
              {
                OFFSET 27.0066 -0.00358093 0.000639583
                CHANNELS 6 Xposition Yposition Zposition Zrotation Xrotation Yrotation
                End Site
                {
                  OFFSET 0 0 0
                }
              }
            }
          }
        }
      }
    }
  }
  JOINT LeftUpLeg
  {
    OFFSET -1.76553 0.414322 32.1765
    CHANNELS 6 Xposition Yposition Zposition Zrotation Xrotation Yrotation
    JOINT LeftLeg
    {
      OFFSET 28.0781 0.00818547 0.00377638
      CHANNELS 6 Xposition Yposition Zposition Zrotation Xrotation Yrotation
      JOINT LeftFoot
      {
        OFFSET 17.9704 -0.000417844 0
        CHANNELS 6 Xposition Yposition Zposition Zrotation Xrotation Yrotation
        JOINT LeftToe
        {
          OFFSET 6.72704 11.0288 -2.40722e-05
          CHANNELS 6 Xposition Yposition Zposition Zrotation Xrotation Yrotation
          End Site
          {
            OFFSET 0 0 0
          }
        }
      }
    }
  }
  JOINT RightUpLeg
  {
    OFFSET -1.76546 0.414066 -32.1766
    CHANNELS 6 Xposition Yposition Zposition Zrotation Xrotation Yrotation
    JOINT RightLeg
    {
      OFFSET 28.0785 0.00199001 0
      CHANNELS 6 Xposition Yposition Zposition Zrotation Xrotation Yrotation
      JOINT RightFoot
      {
        OFFSET 17.9705 -0.00308557 2.31631e-05
        CHANNELS 6 Xposition Yposition Zposition Zrotation Xrotation Yrotation
        JOINT RightToe
        {
          OFFSET 6.72693 11.0289 0.000416116
          CHANNELS 6 Xposition Yposition Zposition Zrotation Xrotation Yrotation
          End Site
          {
            OFFSET 0 0 0
          }
        }
      }
    }
  }
}
MOTION
Frames:	4
Frame Time:	0.0333333
-2.40468 45.1544 87.4745 -110.585 81.843 -162.828 12.2926 6.90117e-06 -3.30633e-06 22.1218 -13.8504 8.60473 19.4953 -0.0133243 -9.45561e-06 -8.53872 -0.000193768 -0.00214979 20.5878 -0.000902436 -1.90321e-06 6.45978 -4.7755 3.90563 25.3216 -12.3262 14.3928 179.576 1.71085 -95.1622 29.1658 -3.14066e-06 -0.0117178 -29.3352 -16.7565 26.718 34.2728 -1.30338e-06 -2.93371e-06 -44.6589 -13.7441 -15.3166 27.0039 0.000513223 0.00137274 69.461 -88.6387 62.7611 33.3143 -4.47577 5.07737e-05 36.3485 7.03025 -12.3817 25.2276 -9.82297e-06 6.91628e-05 -23.865 -7.11203 4.55071 25.3216 -12.3265 -14.3925 -179.725 31.1343 90.0564 29.1709 0.000284558 0.00121801 -19.1492 13.9602 -37.5846 34.2723 0.000166293 1.65921e-06 -48.0984 -25.6467 -23.9463 27.0066 -0.00359229 0.000644995 -133.779 80.8567 122.75 -1.76553 0.414317 32.1765 31.1129 4.53587 -163.807 28.0781 0.000270984 5.13876e-07 -51.5053 1.74745 2.19574 17.9705 -0.000408045 9.22928e-07 19.5089 -5.71703 -9.65625 6.72703 11.0288 -1.84512e-05 90 -0.000151869 0.000180744 -1.76546 0.414069 -32.1766 -45.0947 1.47983 176.438 28.0785 0.00199868 -4.55729e-06 -18.4161 8.3595 2.77339 17.9705 -0.00308241 2.29883e-05 1.69346 24.2284 -5.74436 6.72693 11.0289 0.000415374 89.9999 0.0015257 -0.00696841 
-2.94272 43.2737 90.9687 -111.332 82.081 -162.074 12.2926 6.90117e-06 -3.30633e-06 22.0209 -13.1619 8.72132 19.4953 -0.0133243 -9.45561e-06 -8.5387 -0.000202912 -0.00243412 20.5878 -0.000902436 -1.90321e-06 6.47183 -4.65517 4.39108 25.3216 -12.3262 14.3928 179.574 1.77173 -95.1766 29.1658 -3.14066e-06 -0.0117178 -30.3542 -17.2707 26.6497 34.2728 -1.30338e-06 -2.93371e-06 -45.8068 -13.4552 -15.6492 27.0039 0.000513223 0.00137274 27.9627 -87.6678 25.7317 33.3143 -4.47577 5.07737e-05 37.2256 5.92969 -12.7445 25.2276 -9.82297e-06 6.91628e-05 -24.0429 -6.86886 4.48626 25.3216 -12.3265 -14.3925 -179.717 31.4099 90.0421 29.1709 0.000284558 0.00121801 -18.6781 13.4679 -36.7627 34.2723 0.000166293 1.65921e-06 -46.4578 -26.2207 -23.2185 27.0066 -0.00359229 0.000644995 -142.069 80.0331 132.294 -1.76553 0.414317 32.1765 31.7007 5.27547 -161.568 28.0781 0.000270984 5.13876e-07 -61.1586 0.665911 1.20891 17.9705 -0.000408045 9.22928e-07 14.9915 -1.13527 -6.7869 6.72703 11.0288 -1.84512e-05 90 -0.000152119 0.000174761 -1.76546 0.414069 -32.1766 -51.4017 1.72701 176.414 28.0785 0.00199868 -4.55729e-06 -37.2518 7.2599 5.49106 17.9705 -0.00308241 2.29883e-05 -2.81414 22.0415 -1.83538 6.72693 11.0289 0.000415374 89.9999 0.00148279 -0.00703596 
-3.46702 42.2804 94.4361 -112.827 82.5145 -160.746 12.2926 6.90117e-06 -3.30633e-06 21.89 -12.0537 8.93121 19.4953 -0.0133243 -9.45561e-06 -8.53868 -0.000211628 -0.00266839 20.5878 -0.000902436 -1.90321e-06 6.48037 -4.58645 4.82425 25.3216 -12.3262 14.3928 179.574 1.78002 -95.1947 29.1658 -3.14066e-06 -0.0117178 -30.8315 -17.6965 27.1552 34.2728 -1.30338e-06 -2.93371e-06 -47.0853 -13.0368 -15.9256 27.0039 0.000513223 0.00137274 9.34599 -86.1013 11.557 33.3143 -4.47577 5.07737e-05 38.4294 4.66969 -13.0201 25.2276 -9.82297e-06 6.91628e-05 -23.8813 -6.36225 4.59944 25.3216 -12.3265 -14.3925 -179.716 31.4785 90.0387 29.1709 0.000284558 0.00121801 -18.3865 13.1244 -36.0532 34.2723 0.000166293 1.65921e-06 -44.483 -26.6772 -22.1842 27.0066 -0.00359229 0.000644995 -149.363 79.2524 140.925 -1.76553 0.414317 32.1765 32.986 6.04164 -159.789 28.0781 0.000270984 5.13876e-07 -66.293 -0.127058 -0.289479 17.9705 -0.000408045 9.22928e-07 7.99264 1.19759 -3.52529 6.72703 11.0288 -1.84512e-05 89.9998 -0.000175835 0.000131959 -1.76546 0.414069 -32.1766 -53.8695 1.45045 177.129 28.0785 0.00199868 -4.55729e-06 -49.3661 6.00802 6.98959 17.9705 -0.00308241 2.29883e-05 -2.05511 20.9992 -0.936992 6.72693 11.0289 0.000415374 89.9999 0.00151638 -0.00697986 
-3.97325 41.7658 97.8896 -115.103 83.0967 -158.731 12.2926 6.90117e-06 -3.30633e-06 21.7282 -10.6268 9.16095 19.4953 -0.0133243 -9.45561e-06 -8.53866 -0.000223261 -0.00288598 20.5878 -0.000902436 -1.90321e-06 6.4865 -4.53192 5.19777 25.3216 -12.3262 14.3928 179.573 1.5998 -95.2154 29.1658 -3.14066e-06 -0.0117178 -30.6186 -18.0346 28.4683 34.2728 -1.30338e-06 -2.93371e-06 -48.5957 -12.4418 -16.1455 27.0039 0.000513223 0.00137274 -1.29265 -84.2607 5.33353 33.3143 -4.47577 5.07737e-05 39.7038 3.32559 -13.1372 25.2276 -9.82297e-06 6.91628e-05 -23.332 -5.64122 4.81569 25.3216 -12.3265 -14.3925 -179.728 31.033 90.0619 29.1709 0.000284558 0.00121801 -18.3261 12.9505 -35.4481 34.2723 0.000166293 1.65921e-06 -42.0048 -27.0249 -20.7608 27.0066 -0.00359229 0.000644995 -156.095 78.7549 149.117 -1.76553 0.414317 32.1765 33.9923 6.36616 -159.377 28.0781 0.000270984 5.13876e-07 -69.6054 -0.541195 -1.45545 17.9705 -0.000408045 9.22928e-07 0.53559 1.1591 -2.01057 6.72703 11.0288 -1.84512e-05 89.9999 -0.000154053 0.000182694 -1.76546 0.414069 -32.1766 -54.7374 0.892709 178.278 28.0785 0.00199868 -4.55729e-06 -58.9083 4.75391 7.82598 17.9705 -0.00308241 2.29883e-05 7.19975 20.9911 -1.90447 6.72693 11.0289 0.000415374 89.9999 0.00152058 -0.0069851 
